<?xml version="1.0" standalone="no"?>
<!DOCTYPE svg PUBLIC "-//W3C//DTD SVG 20010904//EN"
 "http://www.w3.org/TR/2001/REC-SVG-20010904/DTD/svg10.dtd">
<svg version="1.0" xmlns="http://www.w3.org/2000/svg"
 width="154.000000pt" height="154.000000pt" viewBox="0 0 154.000000 154.000000"
 preserveAspectRatio="xMidYMid meet">
<metadata>
Created by potrace 1.14, written by Peter Selinger 2001-2017
</metadata>
<g transform="translate(0.000000,154.000000) scale(0.100000,-0.100000)"
fill="#000000" stroke="none">
<path d="M219 1169 c-55 -20 -109 -126 -116 -225 -4 -56 -2 -63 29 -104 62
-81 65 -82 260 -88 149 -4 178 -7 205 -24 58 -34 73 -63 73 -135 0 -74 -18
-108 -76 -144 -34 -21 -44 -22 -152 -15 -64 3 -121 11 -126 16 -6 6 -18 10
-27 10 -10 0 -38 9 -62 19 -33 14 -46 26 -49 43 -4 28 -22 27 -26 -3 -4 -24
41 -68 71 -69 9 0 25 -4 35 -9 58 -29 254 -53 315 -37 14 3 48 29 76 58 51 52
51 52 51 118 0 57 -4 73 -28 109 -16 23 -46 53 -68 66 -36 23 -49 24 -179 25
-187 1 -222 8 -262 56 -30 34 -33 43 -33 104 0 43 5 73 15 86 8 10 15 27 15
36 0 10 13 32 29 50 28 31 33 33 110 36 60 3 92 0 124 -13 63 -25 137 -43 142
-34 8 11 -36 39 -61 39 -11 0 -47 9 -79 20 -62 21 -161 25 -206 9z"/>
<path d="M727 1114 c-4 -4 -3 -12 3 -18 5 -7 10 -140 12 -296 2 -189 7 -292
14 -305 7 -11 18 -33 25 -50 8 -16 37 -53 65 -80 46 -47 56 -51 126 -64 45 -8
118 -12 175 -9 90 3 102 6 137 33 53 41 121 149 132 210 5 28 9 113 9 190 0
132 -2 143 -27 195 -16 33 -30 83 -35 125 -6 52 -12 70 -23 70 -8 0 -14 -5
-13 -12 2 -7 5 -38 9 -70 5 -54 17 -91 47 -152 14 -29 16 -282 3 -356 -9 -51
-56 -124 -111 -175 -24 -23 -36 -25 -133 -29 -194 -6 -282 25 -326 115 -10 22
-23 48 -30 59 -7 13 -13 123 -16 320 -4 260 -7 300 -20 303 -9 1 -19 0 -23 -4z"/>
</g>
</svg>
